<svg width="1920" height="1080" viewBox="0 0 1920 1080" fill="none" xmlns="http://www.w3.org/2000/svg">
<g clip-path="url(#clip0)">
<circle cx="749" cy="214" r="5" fill="#FDF400"/>
<circle cx="1001" cy="306" r="5" fill="#FDF400"/>
<ellipse cx="1215" cy="127.5" rx="3" ry="3.5" fill="#FDF400"/>
<circle cx="566" cy="319" r="5" fill="#FDF400"/>
<circle cx="425" cy="276" r="2" fill="#FDF400"/>
<circle cx="221" cy="326" r="2" fill="#FDF400"/>
<circle cx="121" cy="172" r="5" fill="#FDF400"/>
<circle cx="502" cy="199" r="5" fill="#FDF400"/>
<circle cx="635" cy="204" r="5" fill="#FDF400"/>
<circle cx="749" cy="214" r="5" fill="#FDF400"/>
<circle cx="566" cy="319" r="5" fill="#FDF400"/>
<circle cx="502" cy="199" r="5" fill="#FDF400"/>
<circle cx="635" cy="204" r="5" fill="#FDF400"/>
<circle cx="359" cy="242" r="2" fill="#FDF400"/>
<circle cx="224" cy="205" r="5" fill="#FDF400"/>
<circle cx="295" cy="122" r="2" fill="#FDF400"/>
<circle cx="428" cy="127" r="2" fill="#FDF400"/>
<circle cx="359" cy="242" r="2" fill="#FDF400"/>
<circle cx="295" cy="122" r="2" fill="#FDF400"/>
<circle cx="428" cy="127" r="2" fill="#FDF400"/>
<circle cx="74" cy="475" r="2" fill="#FDF400"/>
<circle cx="207" cy="480" r="2" fill="#FDF400"/>
<circle cx="74" cy="475" r="2" fill="#FDF400"/>
<circle cx="207" cy="480" r="2" fill="#FDF400"/>
<ellipse cx="1165" cy="440.5" rx="3" ry="3.5" fill="#FDF400"/>
<circle cx="984" cy="547" r="5" fill="#FDF400"/>
<circle cx="846" cy="507" r="5" fill="#FDF400"/>
<circle cx="920" cy="427" r="5" fill="#FDF400"/>
<ellipse cx="1051" cy="430.5" rx="3" ry="3.5" fill="#FDF400"/>
<ellipse cx="1165" cy="440.5" rx="3" ry="3.5" fill="#FDF400"/>
<circle cx="984" cy="547" r="5" fill="#FDF400"/>
<circle cx="920" cy="427" r="5" fill="#FDF400"/>
<ellipse cx="1051" cy="430.5" rx="3" ry="3.5" fill="#FDF400"/>
<circle cx="776" cy="469" r="1" fill="#FDF400"/>
<circle cx="712" cy="349" r="1" fill="#FDF400"/>
<circle cx="849" cy="358" r="5" fill="#FDF400"/>
<circle cx="776" cy="469" r="1" fill="#FDF400"/>
<circle cx="712" cy="349" r="1" fill="#FDF400"/>
<circle cx="849" cy="358" r="5" fill="#FDF400"/>
<circle cx="326" cy="41" r="5" fill="#FDF400"/>
<circle cx="942" cy="82" r="5" fill="#FDF400"/>
<ellipse cx="1097" cy="70.5" rx="3" ry="3.5" fill="#FDF400"/>
<circle cx="1787" cy="255" r="5" fill="#FDF400"/>
<ellipse cx="1602" cy="358.5" rx="3" ry="3.5" fill="#FDF400"/>
<ellipse cx="1464" cy="318.5" rx="3" ry="3.5" fill="#FDF400"/>
<ellipse cx="1260" cy="368.5" rx="3" ry="3.5" fill="#FDF400"/>
<ellipse cx="1157" cy="211.5" rx="3" ry="3.5" fill="#FDF400"/>
<ellipse cx="1538" cy="238.5" rx="3" ry="3.5" fill="#FDF400"/>
<ellipse cx="1671" cy="243.5" rx="3" ry="3.5" fill="#FDF400"/>
<ellipse cx="1362" cy="80.5" rx="3" ry="3.5" fill="#FDF400"/>
</g>
<defs>
<clipPath id="clip0">
<rect width="1920" height="1080" fill="white"/>
</clipPath>
</defs>
</svg>
