<?xml version="1.0" encoding="UTF-8" standalone="no"?>
<!-- Created with Inkscape (http://www.inkscape.org/) -->

<svg
   xmlns:dc="http://purl.org/dc/elements/1.1/"
   xmlns:cc="http://creativecommons.org/ns#"
   xmlns:rdf="http://www.w3.org/1999/02/22-rdf-syntax-ns#"
   xmlns:svg="http://www.w3.org/2000/svg"
   xmlns="http://www.w3.org/2000/svg"
   xmlns:xlink="http://www.w3.org/1999/xlink"
   xmlns:sodipodi="http://sodipodi.sourceforge.net/DTD/sodipodi-0.dtd"
   xmlns:inkscape="http://www.inkscape.org/namespaces/inkscape"
   width="256"
   height="256"
   id="svg3033"
   version="1.1"
   inkscape:version="0.48.2 r9819"
   sodipodi:docname="grasswip4.svg"
   inkscape:export-filename="/home/qubodup/grasswip.png"
   inkscape:export-xdpi="90"
   inkscape:export-ydpi="90">
  <defs
     id="defs3035">
    <linearGradient
       id="linearGradient3906">
      <stop
         id="stop3962"
         offset="0"
         style="stop-color:#1a1c13;stop-opacity:0.56800002;" />
      <stop
         id="stop3910"
         offset="1"
         style="stop-color:#1b1d14;stop-opacity:0.69599998;" />
    </linearGradient>
    <linearGradient
       id="linearGradient3875">
      <stop
         style="stop-color:#4c8d2f;stop-opacity:1;"
         offset="0"
         id="stop3877" />
      <stop
         style="stop-color:#38572a;stop-opacity:1;"
         offset="1"
         id="stop3879" />
    </linearGradient>
    <linearGradient
       id="linearGradient3848">
      <stop
         style="stop-color:#434e28;stop-opacity:1;"
         offset="0"
         id="stop3850" />
      <stop
         style="stop-color:#7c885b;stop-opacity:1;"
         offset="1"
         id="stop3852" />
    </linearGradient>
    <linearGradient
       id="linearGradient3840">
      <stop
         style="stop-color:#116f11;stop-opacity:1;"
         offset="0"
         id="stop3842" />
      <stop
         style="stop-color:#434e28;stop-opacity:1;"
         offset="1"
         id="stop3844" />
    </linearGradient>
    <linearGradient
       id="linearGradient3832">
      <stop
         style="stop-color:#7c885b;stop-opacity:1;"
         offset="0"
         id="stop3834" />
      <stop
         style="stop-color:#434e28;stop-opacity:1;"
         offset="1"
         id="stop3836" />
    </linearGradient>
    <linearGradient
       id="linearGradient3824">
      <stop
         style="stop-color:#304627;stop-opacity:1;"
         offset="0"
         id="stop3826" />
      <stop
         style="stop-color:#7c885b;stop-opacity:1;"
         offset="1"
         id="stop3828" />
    </linearGradient>
    <linearGradient
       inkscape:collect="always"
       xlink:href="#linearGradient3824"
       id="linearGradient3830"
       x1="137.56467"
       y1="1052.3622"
       x2="197.46545"
       y2="898.0191"
       gradientUnits="userSpaceOnUse" />
    <linearGradient
       inkscape:collect="always"
       xlink:href="#linearGradient3832"
       id="linearGradient3838"
       x1="94.297462"
       y1="1052.3622"
       x2="69.050011"
       y2="901.69275"
       gradientUnits="userSpaceOnUse"
       gradientTransform="matrix(-1,0,0,1,240.1518,0)" />
    <linearGradient
       inkscape:collect="always"
       xlink:href="#linearGradient3840"
       id="linearGradient3846"
       x1="206.37265"
       y1="944.1283"
       x2="117.68427"
       y2="1052.3622"
       gradientUnits="userSpaceOnUse" />
    <linearGradient
       inkscape:collect="always"
       xlink:href="#linearGradient3848"
       id="linearGradient3854"
       x1="102.68325"
       y1="902.06696"
       x2="160.94623"
       y2="1052.3622"
       gradientUnits="userSpaceOnUse"
       gradientTransform="matrix(-1,0,0,1,240.1518,0)" />
    <linearGradient
       inkscape:collect="always"
       xlink:href="#linearGradient3875"
       id="linearGradient3881"
       x1="119.44321"
       y1="904.39276"
       x2="149.0255"
       y2="1025.308"
       gradientUnits="userSpaceOnUse" />
    <linearGradient
       inkscape:collect="always"
       xlink:href="#linearGradient3875"
       id="linearGradient3885"
       gradientUnits="userSpaceOnUse"
       x1="119.44321"
       y1="904.39276"
       x2="149.0255"
       y2="1025.308"
       gradientTransform="matrix(-1,0,0,1,267.31794,0)" />
    <linearGradient
       inkscape:collect="always"
       xlink:href="#linearGradient3906"
       id="linearGradient3912"
       gradientUnits="userSpaceOnUse"
       gradientTransform="matrix(-1,0,0,1,240.1518,-796.36218)"
       x1="123.18935"
       y1="1052.3622"
       x2="119.93404"
       y2="962.55963" />
    <linearGradient
       inkscape:collect="always"
       xlink:href="#linearGradient3906"
       id="linearGradient3947"
       gradientUnits="userSpaceOnUse"
       gradientTransform="matrix(-1,0,0,1,240.1518,-796.36218)"
       x1="123.18935"
       y1="1052.3622"
       x2="122.05536"
       y2="995.08655" />
    <linearGradient
       inkscape:collect="always"
       xlink:href="#linearGradient3906"
       id="linearGradient3951"
       gradientUnits="userSpaceOnUse"
       gradientTransform="matrix(-1,0,0,1,244.1518,4)"
       x1="123.18935"
       y1="1052.3622"
       x2="122.05536"
       y2="995.08655" />
  </defs>
  <sodipodi:namedview
     id="base"
     pagecolor="#ffffff"
     bordercolor="#666666"
     borderopacity="1.0"
     inkscape:pageopacity="0.0"
     inkscape:pageshadow="2"
     inkscape:zoom="2"
     inkscape:cx="61.404655"
     inkscape:cy="114.53422"
     inkscape:document-units="px"
     inkscape:current-layer="layer1"
     showgrid="false"
     inkscape:window-width="1024"
     inkscape:window-height="581"
     inkscape:window-x="0"
     inkscape:window-y="19"
     inkscape:window-maximized="0"
     showguides="true"
     inkscape:guide-bbox="true"
     inkscape:snap-page="true">
    <sodipodi:guide
       orientation="0,1"
       position="115.66247,678.31743"
       id="guide3288" />
    <inkscape:grid
       type="xygrid"
       id="grid3887"
       empspacing="5"
       visible="true"
       enabled="true"
       snapvisiblegridlinesonly="true" />
  </sodipodi:namedview>
  <metadata
     id="metadata3038">
    <rdf:RDF>
      <cc:Work
         rdf:about="">
        <dc:format>image/svg+xml</dc:format>
        <dc:type
           rdf:resource="http://purl.org/dc/dcmitype/StillImage" />
        <dc:title></dc:title>
      </cc:Work>
    </rdf:RDF>
  </metadata>
  <g
     inkscape:label="Layer 1"
     inkscape:groupmode="layer"
     id="layer1"
     transform="translate(0,-796.36218)">
    <path
       style="fill:url(#linearGradient3854);fill-opacity:1;stroke:none"
       d="m 191.91576,936.68221 c -28.71021,9.88948 -56.66332,19.39021 -86.45111,83.15819 1.5034,-59.60298 16.10566,-113.96435 43.3358,-170.48794 -17.52075,25.59197 -44.56191,56.94273 -59.244794,178.85844 -11.8749,-45.63861 -32.03054,-81.59213 -49.48826,-102.24542 l 0,4 c -8.04448,-6.57284 -16.86083,-11.13102 -26.62275,-14.16791 7.82946,5.36299 14.65908,10.98623 20.62298,16.89226 l -2.8689,1.66869 c 30.48214,26.67583 41.87157,72.17138 44.62556,118.00368 l 36.638764,0 c 3.71407,-53.94543 35.25418,-89.08898 79.45271,-115.67999 z"
       id="rect4083"
       inkscape:connector-curvature="0"
       sodipodi:nodetypes="cccccccccccc" />
    <path
       style="fill:url(#linearGradient3838);fill-opacity:1;stroke:none"
       d="m 230.70715,898.39697 c -7.17226,5.50145 -13.60631,11.42243 -19.378,17.62598 l 4,-2 c -4.22308,4.80968 -15.15288,15.18216 -18.65412,20.23112 l 4,-2 c -3.17472,5.14099 -14.38015,19.98083 -17.12319,25.3476 -25.0974,49.10313 -22.41726,94.76053 -22.41726,94.76053 -10.42903,0 -20.85805,0 -31.28708,0 3.12606,-60.12025 -16.04095,-114.42458 -63.397524,-161.37535 29.52621,25.81393 59.679084,52.58178 74.571044,134.20545 4.44623,-135.52145 45.97023,-168.17796 78.15927,-186.48776 -54.10938,41.08169 -66.5269,94.37083 -62.16245,171.66746 6.5187,-30.13011 27.04786,-75.21628 41.73615,-95.30704 l -3.94199,11.0465 c 3.97952,-4.52423 18.4421,-20.12682 18.4421,-20.12682 l -0.56336,3.59554 c 0,0 11.51877,-7.86723 18.01641,-11.18321 z"
       id="path4092"
       inkscape:connector-curvature="0"
       sodipodi:nodetypes="cccccsccccccccssc" />
    <path
       style="fill:#2d5016;stroke:none"
       d="m 38.268489,945.73919 c 23.205995,28.18612 47.154557,54.1279 48.165627,106.62301 17.290204,0 34.580404,0 51.870664,0 3.28846,-44.7571 22.08753,-85.63344 97.97792,-64.63283 -38.31263,-16.79573 -86.75937,-20.70832 -107.0347,47.75413 0.0553,-67.10728 17.53962,-113.43996 46.10726,-146.55551 -32.17859,30.45002 -53.97975,75.78858 -60.9275,142.43911 C 82.969173,906.97326 55.698502,888.48711 26.329969,851.87769 59.86007,897.35931 94.330495,948.51647 98.784282,1032.19 77.160271,978.3727 58.844083,964.96218 38.268489,945.73919 z"
       id="path4090"
       inkscape:connector-curvature="0"
       sodipodi:nodetypes="cccccccccc" />
    <path
       style="fill:url(#linearGradient3881);fill-opacity:1;stroke:none"
       d="m 105.30107,874.90732 c 13.69881,43.68322 29.91159,95.01447 31.53454,177.45488 5.48893,0 15.97798,0 21.46691,0 -0.13509,-50.4368 5.1619,-103.99771 43.04888,-172.90227 -21.15695,34.62338 -41.88085,70.67525 -52.28231,140.79197 C 127.492,914.26807 118.71969,908.01418 105.30107,874.90732 z"
       id="path4096"
       inkscape:connector-curvature="0"
       sodipodi:nodetypes="cccccc" />
    <path
       style="fill:url(#linearGradient3912);fill-opacity:1;stroke:none"
       d="M 219.1875 42.34375 C 204.46631 50.71747 187.78028 62.095239 173.59375 84.9375 C 156.88173 95.897144 139.91413 109.75868 127.625 134.625 C 125.8319 128.83191 124.14596 123.87508 122.5 119.375 C 129.28442 97.282034 138.06402 75.311402 148.8125 53 C 139.95078 65.944023 128.65185 80.386604 117.75 107.25 C 113.69067 97.576116 109.75718 89.49731 105.3125 78.53125 C 108.68937 89.299528 112.1988 100.54455 115.625 112.59375 C 113.65262 117.78208 111.69831 123.40575 109.78125 129.53125 C 109.32265 129.50123 108.93186 129.35926 108.625 129.0625 C 106.44287 126.95221 107.7514 120.94704 107.25 117.84375 C 106.7486 114.74046 101.979 118.18722 102 118.59375 C 102.02096 119.00028 105.90293 127.53235 104.625 129.0625 C 104.33149 129.41395 103.57202 129.3264 102.625 129 C 98.181163 123.79912 93.58205 119.29895 88.875 115.4375 C 81.534033 107.84577 73.959837 101.20157 66.4375 94.625 C 71.113589 99.261019 75.524181 103.97207 79.65625 108.75 C 73.792362 104.99817 67.786996 102.06527 61.71875 99.8125 C 49.982793 82.426101 38.351474 70.468259 26.34375 55.5 C 36.17242 68.832016 46.070704 82.672847 55.28125 97.65625 C 44.800062 94.568185 34.165772 93.278216 23.71875 92.96875 C 36.451225 94.533206 47.964185 97.872098 58.3125 102.6875 C 71.261736 124.51828 82.619837 148.89023 90.0625 177.78125 C 81.497306 169.74299 71.273467 163.88197 60.90625 160.125 C 53.98393 147.88869 46.812767 137.57963 40.0625 129.59375 L 40.0625 133.59375 C 32.01802 127.02091 23.19942 122.47439 13.4375 119.4375 C 21.26696 124.80049 28.0986 130.40647 34.0625 136.3125 L 31.1875 138 C 37.381411 143.42048 42.795008 149.61798 47.5 156.4375 C 46.850784 156.3132 46.207099 156.2013 45.5625 156.09375 C 43.15547 153.88068 40.743449 151.67534 38.28125 149.375 C 40.045337 151.51767 41.800233 153.65187 43.5625 155.78125 C 34.695425 154.52863 26.382292 154.87336 19.6875 156.78125 C 31.755549 158.59359 42.059635 161.30886 50.875 164.71875 C 52.814299 167.13928 54.721333 169.58023 56.59375 172.0625 C 68.579179 196.5079 74.020506 226.17737 75.8125 256 L 109 256 L 110.53125 256 L 130.46875 256 L 136.84375 256 L 153.59375 256 L 158.3125 256 L 161.125 256 C 161.125 256 160.57915 246.41937 162.375 231.34375 C 170.93412 213.00778 184.43569 196.07461 206.5 185.96875 C 215.29138 186.57336 225.17455 188.30152 236.28125 191.375 C 228.72556 188.06269 220.76891 185.26014 212.71875 183.40625 C 222.69734 179.68382 234.23037 177.26882 247.65625 176.5625 C 226.48404 173.71183 209.87537 174.53385 195.25 181.0625 C 187.88688 180.84922 180.60629 181.7053 173.65625 184 C 174.16112 182.61384 174.67307 181.21514 175.21875 179.8125 C 187.27986 171.20351 201.28693 165.25357 217.03125 164.03125 C 204.68192 161.57282 192.60995 162.26479 181.28125 165.8125 C 182.00852 164.29432 182.78249 162.7761 183.5625 161.25 C 186.30554 155.88323 197.51278 141.04724 200.6875 135.90625 L 196.6875 137.90625 C 200.18874 132.85729 211.12067 122.46593 215.34375 117.65625 L 211.34375 119.65625 C 217.11544 113.4527 223.54649 107.5327 230.71875 102.03125 C 224.22111 105.34723 212.6875 113.21875 212.6875 113.21875 L 213.25 109.625 C 213.25 109.625 198.79202 125.22577 194.8125 129.75 L 198.75 118.6875 C 194.25956 124.82956 189.23378 133.35848 184.21875 143.03125 C 180.5977 144.33027 176.98448 145.66422 173.375 147.21875 C 179.76537 127.24131 188.73901 106.01783 201.34375 83.09375 C 189.24238 102.89767 177.27991 123.18537 167.3125 150.03125 C 164.12684 151.61586 160.93896 153.39379 157.75 155.4375 C 159.69449 136.71972 163.60128 119.71092 170.0625 104.15625 C 171.9855 101.71101 173.97909 99.322608 176.0625 97 C 174.37633 98.665173 172.70192 100.31719 171.03125 101.9375 C 180.88508 79.297744 196.29879 59.721642 219.1875 42.34375 z M 176.0625 97 C 178.47247 94.620042 180.89704 92.14704 183.34375 89.40625 C 180.80974 91.86155 178.39093 94.404235 176.0625 97 z M 171.125 89.09375 C 168.25632 94.102229 165.50071 99.643785 162.90625 105.75 C 151.23902 119.52695 141.30631 135.78685 133.40625 154.96875 C 132.61844 151.9803 131.87553 149.18365 131.125 146.5 C 138.50904 123.82101 151.93163 107.13603 171.125 89.09375 z M 66.28125 106.84375 C 78.094825 113.62901 88.226778 122.49514 96.75 133.03125 C 93.899386 131.59426 91.358367 130.38299 91.46875 131.46875 C 91.634078 133.09496 97.44811 135.97081 100.75 138.25 C 101.41934 139.17369 102.07142 140.11712 102.71875 141.0625 C 100.90892 142.3121 90.33963 137.00789 90.375 138.96875 C 90.412111 141.02605 102.38928 140.87123 102.5625 147 C 102.62108 149.07243 102.74677 151.67296 102.90625 154.5 C 101.17211 161.6754 99.519407 169.40536 97.90625 177.71875 C 87.066954 145.2098 76.621115 123.48657 66.28125 106.84375 z M 155.1875 127.3125 C 152.02598 137.91884 149.27194 149.87483 147.03125 163.40625 C 144.5879 165.49604 142.14122 167.80846 139.6875 170.34375 C 143.52267 154.18274 148.63198 139.99332 155.1875 127.3125 z M 119.875 128.28125 C 120.21128 129.58758 120.54339 130.86071 120.875 132.1875 C 120.8093 132.174 120.78401 132.1651 120.6875 132.15625 C 120.1573 132.10761 119.48636 132.19868 118.75 132.34375 C 119.11745 130.98748 119.49255 129.63607 119.875 128.28125 z M 120.96875 132.5 C 121.86955 136.11285 122.73532 139.81884 123.59375 143.59375 C 122.23064 146.95575 120.94605 150.51559 119.75 154.25 C 118.25877 151.51076 116.73238 148.88307 115.1875 146.375 C 115.5822 144.67098 116.01928 142.98192 116.4375 141.28125 C 119.11337 140.34534 121.45131 139.41121 121.6875 138.40625 C 121.95623 137.26284 119.61546 138.33383 116.90625 139.40625 C 117.39886 137.44506 117.91363 135.48876 118.4375 133.53125 C 119.54798 133.12744 120.63378 132.72365 120.96875 132.5 z M 182.59375 146.1875 C 178.8797 153.5473 175.23538 161.45688 171.84375 169.53125 C 170.04453 170.38396 168.24878 171.30862 166.5 172.3125 C 167.85516 166.3756 169.40728 160.34443 171.21875 154.1875 C 174.88861 151.43837 178.67596 148.76912 182.59375 146.1875 z M 112.4375 159.34375 C 113.69497 162.10465 114.88086 164.89051 116 167.6875 C 114.80605 172.77227 113.7943 178.20689 112.90625 183.9375 C 112.7783 183.18529 112.67386 182.56231 112.53125 181.75 C 111.76321 177.37526 111.12213 173.26173 110.59375 169.46875 C 111.16095 166.08259 111.7792 162.71067 112.4375 159.34375 z M 163.84375 159.96875 C 161.99929 165.52425 160.22511 171.34438 158.5625 177.5 C 157.79932 178.06616 157.03173 178.6532 156.28125 179.25 C 156.37983 174.76058 156.56843 170.34172 156.84375 166.03125 C 159.11065 163.95987 161.44162 161.94876 163.84375 159.96875 z M 127.3125 161.4375 C 127.72325 163.59011 128.13955 165.76065 128.53125 167.96875 C 128.23689 168.82915 127.94321 169.69149 127.65625 170.5625 C 127.19971 169.50989 126.74452 168.46264 126.28125 167.4375 C 126.58429 165.38798 126.93785 163.39469 127.3125 161.4375 z M 67.78125 173.15625 C 80.097844 180.93717 88.233615 190.48554 93.875 200.59375 C 92.975176 206.28663 92.118003 212.25425 91.28125 218.4375 C 85.778172 206.61537 80.456102 197.23122 75.21875 189.40625 C 72.829812 183.72549 70.335073 178.31552 67.78125 173.15625 z M 144.875 178.1875 C 144.31686 182.57547 143.83024 187.12353 143.375 191.8125 C 143.07852 192.1596 142.76213 192.49088 142.46875 192.84375 C 141.75323 189.61309 141.06051 186.52479 140.375 183.53125 C 141.82483 181.71886 143.3309 179.9362 144.875 178.1875 z M 184.53125 187.09375 C 178.80831 191.05574 173.33683 196.11216 167.90625 202.375 C 168.82917 198.8714 169.87856 195.2804 171.0625 191.59375 C 175.07097 189.63102 179.54747 188.09802 184.53125 187.09375 z "
       transform="translate(0,796.36218)"
       id="path3889" />
    <path
       style="fill:url(#linearGradient3846);fill-opacity:1;stroke:none"
       d="m 19.696454,953.14721 c 26.718278,-7.61422 79.103936,9.5237 90.364806,54.74289 4.78468,-85.9545 39.32271,-111.58129 70.41582,-130.98345 -41.86839,37.19956 -60.83698,64.34068 -55.10815,140.07785 19.22085,-42.55015 54.17982,-64.06326 91.66383,-56.60116 -51.71332,4.0148 -84.76951,58.97016 -91.21456,91.97886 l -15.28328,0 c -8.52515,-29.8747 -6.56122,-86.55848 -90.838466,-99.21499 z"
       id="rect4078"
       inkscape:connector-curvature="0"
       sodipodi:nodetypes="cccccccc" />
    <path
       style="fill:url(#linearGradient3830);stroke:none;fill-opacity:1"
       d="m 23.720482,889.34001 c 76.674938,9.42115 109.128508,82.44222 109.298968,163.02219 6.31221,0 14.27135,0 20.58358,0 9.61683,-36.176 31.87955,-76.18091 94.067,-79.4525 -46.62244,-6.27735 -71.23894,5.19343 -100.85959,56.3991 C 121.80697,912.18336 70.961004,890.73939 23.720482,889.34001 z"
       id="path4098"
       inkscape:connector-curvature="0"
       sodipodi:nodetypes="cccccc" />
    <path
       sodipodi:nodetypes="ccczzzzzzzzzzzzzzzzzzzcc"
       inkscape:connector-curvature="0"
       id="path3883"
       d="m 183.3514,885.78169 c -36.32623,35.19794 -51.24612,84.1401 -52.86907,166.58051 -5.48893,0 -15.97798,0 -21.46691,0 0.057,-21.2892 -1.79428,-43.6497 -2.52473,-52.45642 -0.73045,-8.80673 -0.86537,-15.84792 -2.00953,-28.3864 -1.14416,-12.53848 -1.73601,-22.01547 -1.90924,-28.14424 -0.17322,-6.12877 -12.14726,-5.97731 -12.184371,-8.03461 -0.03711,-2.0573 11.599421,3.86354 12.545131,1.84295 0.9457,-2.02059 -11.217224,-6.97569 -11.457701,-9.34109 -0.240476,-2.3654 11.948901,6.00434 13.025731,4.41953 1.07682,-1.58481 -9.209803,-7.36629 -9.996982,-9.80269 -0.787179,-2.4364 8.839412,4.50888 10.117332,2.97873 1.27793,-1.53015 -2.60323,-10.0715 -2.62419,-10.47803 -0.021,-0.40653 4.7486,-3.85329 5.25,-0.75 0.5014,3.10329 -0.80794,9.11774 1.37419,11.22803 2.18214,2.11029 8.85571,-3.52336 10.70778,-2.68264 1.85207,0.84072 -11.20005,6.91675 -10.95953,8.43821 0.24052,1.52146 8.92969,-2.98111 12.32298,-2.66983 3.39329,0.31128 -12.78714,3.52413 -11.30474,7.56683 1.4824,4.0427 12.88761,-3.76678 12.30943,-1.3067 -0.57818,2.46008 -13.79739,4.2955 -13.55658,7.55172 0.24081,3.25622 1.15015,17.29397 4.39324,35.76646 3.24309,18.47249 2.52131,20.61967 5.71521,42.14989 21.57709,-105.98383 42.49154,-109.14153 65.10255,-134.47021 z"
       style="fill:url(#linearGradient3885);fill-opacity:1;stroke:none" />
    <path
       style="fill:url(#linearGradient3947);fill-opacity:1;stroke:none"
       d="M 35.40625 66.4375 C 43.548135 77.639972 51.652627 89.246268 59.28125 101.65625 C 56.485979 100.83268 53.685594 100.1458 50.875 99.5625 C 53.418281 100.52188 55.896844 101.56342 58.3125 102.6875 C 58.901102 103.67981 59.480692 104.68451 60.0625 105.6875 C 60.813569 106.01628 61.573335 106.34354 62.3125 106.6875 C 75.261736 128.51828 86.619837 152.89023 94.0625 181.78125 C 85.497306 173.74299 75.273467 167.88197 64.90625 164.125 C 64.299905 163.05319 63.703464 162.01072 63.09375 160.96875 C 62.364491 160.6828 61.637467 160.38999 60.90625 160.125 C 55.33226 150.27208 49.609517 141.67828 44.0625 134.53125 L 44.0625 137.59375 C 36.815714 131.67268 28.939394 127.41628 20.3125 124.40625 C 25.341783 128.24169 29.915902 132.20614 34.0625 136.3125 L 33.9375 136.40625 C 35.357074 137.69565 36.730893 138.99381 38.0625 140.3125 L 35.34375 141.90625 C 36.182851 142.73596 37.036003 143.54636 37.84375 144.40625 C 37.897027 144.45663 37.946845 144.512 38 144.5625 C 43.034745 149.34552 47.521793 154.6714 51.5 160.4375 C 50.850784 160.3132 50.207099 160.2013 49.5625 160.09375 C 47.15547 157.88068 44.743449 155.67534 42.28125 153.375 C 44.045337 155.51767 45.800233 157.65187 47.5625 159.78125 C 42.335809 159.04289 37.311263 158.85411 32.6875 159.21875 C 39.364804 160.7494 45.408339 162.60418 50.875 164.71875 C 51.817205 165.89476 52.729547 167.0932 53.65625 168.28125 C 54.058736 168.43177 54.478561 168.5654 54.875 168.71875 C 56.814299 171.13928 58.721333 173.58023 60.59375 176.0625 C 72.0434 199.41513 77.502153 227.5333 79.53125 256 L 109 256 L 110.53125 256 L 130.46875 256 L 136.84375 256 L 153.59375 256 L 158.3125 256 L 161.125 256 C 161.125 256 160.57915 246.41945 162.375 231.34375 C 170.93412 213.00785 184.43569 196.07461 206.5 185.96875 C 209.93563 186.20503 213.53553 186.59481 217.3125 187.1875 C 218.65846 186.69533 220.03461 186.22517 221.4375 185.78125 C 218.55324 184.87872 215.64241 184.07955 212.71875 183.40625 C 217.43599 181.64652 222.52099 180.16422 227.96875 179.03125 C 217.33984 179.3083 207.9382 181.18416 199.25 185.0625 C 191.88688 184.84922 184.60629 185.7053 177.65625 188 C 178.16112 186.61384 178.67307 185.21514 179.21875 183.8125 C 180.10633 183.17896 180.99767 182.54142 181.90625 181.9375 C 179.11376 182.41659 176.36311 183.10627 173.65625 184 C 174.16112 182.61384 174.67307 181.21514 175.21875 179.8125 C 183.31058 174.03671 192.2819 169.47615 202.0625 166.71875 C 196.33362 167.07312 190.71915 168.10956 185.28125 169.8125 C 186.00852 168.29432 186.78249 166.7761 187.5625 165.25 C 187.7468 164.88941 187.99428 164.47152 188.25 164.03125 C 185.89754 164.51314 183.57656 165.0937 181.28125 165.8125 C 182.00852 164.29432 182.78249 162.7761 183.5625 161.25 C 186.30554 155.88323 197.51278 141.04724 200.6875 135.90625 L 196.6875 137.90625 C 200.18874 132.85729 211.12067 122.46593 215.34375 117.65625 L 212 119.34375 C 207.41307 124.31086 201.43578 130.76765 198.8125 133.75 L 202.75 122.6875 C 198.25956 128.82956 193.23378 137.35848 188.21875 147.03125 C 185.74473 147.91878 183.28051 148.83315 180.8125 149.8125 C 179.75191 151.9777 178.69607 154.16948 177.65625 156.40625 C 180.56257 154.28721 183.53453 152.20337 186.59375 150.1875 C 182.8797 157.5473 179.23538 165.45688 175.84375 173.53125 C 174.04453 174.38396 172.24878 175.30862 170.5 176.3125 C 171.13772 173.51866 171.83104 170.71387 172.5625 167.875 C 172.327 168.42843 172.07693 168.97613 171.84375 169.53125 C 170.04453 170.38396 168.24878 171.30862 166.5 172.3125 C 167.85516 166.3756 169.40728 160.34443 171.21875 154.1875 C 173.442 152.52204 175.71889 150.88635 178.03125 149.28125 C 178.52181 147.78065 179.01096 146.2649 179.53125 144.75 C 177.70198 145.43999 175.88919 146.1646 174.0625 146.9375 C 173.13333 149.25444 172.21063 151.61226 171.3125 154.03125 C 168.12684 155.61586 164.93896 157.39379 161.75 159.4375 C 161.99089 157.11871 162.26026 154.82932 162.5625 152.5625 C 160.96073 153.46444 159.35246 154.41053 157.75 155.4375 C 159.69449 136.71972 163.60128 119.71092 170.0625 104.15625 C 171.9855 101.71101 173.97909 99.32261 176.0625 97 C 174.37633 98.66517 172.70192 100.31719 171.03125 101.9375 C 172.961 97.503794 175.1294 93.20521 177.5 89 C 174.12174 91.217519 170.73264 93.570938 167.375 96.09375 C 165.96221 98.904378 164.58583 101.86691 163.25 104.96875 C 166.92962 101.02893 170.87715 97.086842 175.125 93.09375 C 172.25632 98.10223 169.50071 103.64379 166.90625 109.75 C 155.23902 123.52695 145.30631 139.78685 137.40625 158.96875 C 136.64158 156.06809 135.91559 153.36132 135.1875 150.75 C 134.57956 152.14022 133.99197 153.54659 133.40625 154.96875 C 132.61844 151.9803 131.87553 149.18365 131.125 146.5 C 135.44673 133.22645 141.84492 122.01589 150.25 111.375 C 143.40895 118.76993 137.06188 127.6238 131.625 138.625 C 130.82771 136.04914 130.04207 133.65355 129.28125 131.375 C 128.71702 132.43739 128.17118 133.51984 127.625 134.625 C 125.8319 128.83191 124.14596 123.87508 122.5 119.375 C 126.16612 107.43654 130.42283 95.533841 135.25 83.59375 C 130.8151 91.216573 126.24884 100.16434 121.75 111.25 C 120.7852 108.95077 119.83413 106.7417 118.875 104.5625 C 118.50119 105.45296 118.123 106.3309 117.75 107.25 C 116.79825 104.98187 115.85237 102.80678 114.90625 100.65625 C 116.47782 105.83185 118.06756 111.11657 119.625 116.59375 C 117.65262 121.78208 115.69831 127.40575 113.78125 133.53125 C 113.32265 133.50125 112.93186 133.35926 112.625 133.0625 C 110.9884 131.47978 111.32079 127.69082 111.375 124.59375 C 110.84161 126.20648 110.30938 127.84373 109.78125 129.53125 C 109.32265 129.50125 108.93186 129.35926 108.625 129.0625 C 108.42522 128.86929 108.27033 128.62828 108.125 128.375 C 108.77127 130.42928 109.17692 132.40165 108.625 133.0625 C 108.33149 133.41395 107.57202 133.3264 106.625 133 C 105.49404 131.67637 104.3378 130.39013 103.1875 129.15625 C 103.00487 129.11025 102.82751 129.0698 102.625 129 C 101.25373 127.39513 99.868194 125.84825 98.46875 124.375 C 98.356561 124.26845 98.237339 124.16827 98.125 124.0625 C 96.39271 122.43155 94.640144 120.88554 92.875 119.4375 C 91.628896 118.14883 90.38315 116.89462 89.125 115.65625 C 89.039539 115.58566 88.960533 115.50767 88.875 115.4375 C 88.62237 115.17624 88.37817 114.9153 88.125 114.65625 C 82.295357 108.9863 76.341066 103.78632 70.4375 98.625 C 75.113589 103.26102 79.524181 107.97207 83.65625 112.75 C 77.792362 108.99817 71.786996 106.06527 65.71875 103.8125 C 64.946754 102.66882 64.177477 101.56786 63.40625 100.46875 C 62.845287 100.24829 62.280854 100.02118 61.71875 99.8125 C 52.959607 86.836143 44.248811 76.874492 35.40625 66.4375 z M 176.0625 97 C 178.47247 94.62004 180.89704 92.14704 183.34375 89.40625 C 180.80974 91.86155 178.39093 94.40424 176.0625 97 z M 66.28125 106.84375 C 75.445691 112.10745 83.606767 118.6111 90.78125 126.1875 C 94.319805 129.56488 97.64263 133.19003 100.75 137.03125 C 98.462767 135.87826 96.366435 134.88616 95.6875 135.09375 C 97.40949 136.16404 99.306382 137.25352 100.75 138.25 C 101.37542 139.11307 101.98827 139.99197 102.59375 140.875 C 103.36425 141.34884 104.10911 141.80761 104.75 142.25 C 105.41934 143.17369 106.07142 144.11712 106.71875 145.0625 C 105.98473 145.56931 103.79264 145.00863 101.46875 144.28125 C 101.96008 144.84427 102.31399 145.491 102.46875 146.25 C 104.67066 147.23136 106.49601 148.64756 106.5625 151 C 106.6211 153.07243 106.74677 155.67296 106.90625 158.5 C 105.17211 165.6754 103.51941 173.40536 101.90625 181.71875 C 100.88842 178.66609 99.886133 175.74218 98.875 172.875 C 98.552593 174.47351 98.225241 176.07484 97.90625 177.71875 C 87.066954 145.2098 76.621115 123.48657 66.28125 106.84375 z M 107.34375 121.5 C 106.5838 121.96974 105.99276 122.45364 106 122.59375 C 106.00927 122.77313 106.79353 124.54994 107.53125 126.59375 C 107.25715 125.07599 107.29723 123.23628 107.34375 121.5 z M 155.1875 127.3125 C 152.29996 136.99967 149.75205 147.82659 147.625 159.9375 C 150.83073 149.58059 154.65724 140.0757 159.1875 131.3125 C 156.02598 141.91884 153.27194 153.87483 151.03125 167.40625 C 148.5879 169.49604 146.14122 171.80846 143.6875 174.34375 C 144.53733 170.76267 145.46068 167.29875 146.4375 163.90625 C 144.18818 165.86228 141.94585 168.01032 139.6875 170.34375 C 143.52267 154.18274 148.63198 139.99332 155.1875 127.3125 z M 119.875 128.28125 C 120.21128 129.58758 120.54339 130.86071 120.875 132.1875 C 120.8093 132.174 120.784 132.16515 120.6875 132.15625 C 120.1573 132.10765 119.48636 132.19865 118.75 132.34375 C 119.11745 130.98748 119.49255 129.63607 119.875 128.28125 z M 123.875 132.28125 C 124.21128 133.58758 124.54339 134.86071 124.875 136.1875 C 124.8093 136.174 124.784 136.16515 124.6875 136.15625 C 124.1573 136.10765 123.48636 136.19865 122.75 136.34375 C 123.11745 134.98748 123.49255 133.63607 123.875 132.28125 z M 120.96875 132.5 C 121.41915 134.30642 121.87615 136.15003 122.3125 138 C 122.35424 137.8436 122.39564 137.68766 122.4375 137.53125 C 123.54798 137.12744 124.63378 136.72365 124.96875 136.5 C 125.86955 140.11285 126.73532 143.81884 127.59375 147.59375 C 126.23064 150.95575 124.94605 154.51559 123.75 158.25 C 122.64093 156.21275 121.51611 154.25427 120.375 152.34375 C 120.16478 152.97364 119.95506 153.60973 119.75 154.25 C 118.25877 151.51076 116.73238 148.88307 115.1875 146.375 C 115.5822 144.67098 116.01928 142.98192 116.4375 141.28125 C 119.11337 140.34534 121.45131 139.41121 121.6875 138.40625 C 121.95623 137.26284 119.61546 138.33385 116.90625 139.40625 C 117.39886 137.44506 117.91363 135.48876 118.4375 133.53125 C 119.54798 133.12744 120.63378 132.72365 120.96875 132.5 z M 125 141.9375 C 124.59542 141.99825 123.99814 142.19299 123.34375 142.4375 C 123.43241 142.82506 123.50528 143.2047 123.59375 143.59375 C 123.52259 143.76927 123.44573 143.9484 123.375 144.125 C 124.61745 143.5659 125.548 142.99981 125.6875 142.40625 C 125.78827 141.97747 125.51497 141.86018 125 141.9375 z M 112.4375 159.34375 C 113.59581 161.88693 114.67814 164.45652 115.71875 167.03125 C 115.94749 165.80245 116.19759 164.57078 116.4375 163.34375 C 117.69497 166.10465 118.88086 168.89051 120 171.6875 C 118.80605 176.77227 117.7943 182.20689 116.90625 187.9375 C 116.7783 187.18529 116.67386 186.56231 116.53125 185.75 C 115.79347 181.5476 115.17237 177.60523 114.65625 173.9375 C 114.01984 177.15859 113.44042 180.49051 112.90625 183.9375 C 112.7783 183.18529 112.67386 182.56231 112.53125 181.75 C 111.76321 177.37526 111.12213 173.26173 110.59375 169.46875 C 111.16095 166.08259 111.7792 162.71067 112.4375 159.34375 z M 163.84375 159.96875 C 161.99929 165.52425 160.22511 171.34438 158.5625 177.5 C 157.79932 178.06616 157.03173 178.6532 156.28125 179.25 C 156.37985 174.76058 156.56843 170.34172 156.84375 166.03125 C 159.11065 163.95987 161.44162 161.94876 163.84375 159.96875 z M 127.3125 161.4375 C 127.72325 163.59011 128.13955 165.76065 128.53125 167.96875 C 128.23689 168.82915 127.94321 169.69149 127.65625 170.5625 C 127.19971 169.50989 126.74452 168.46264 126.28125 167.4375 C 126.58429 165.38798 126.93785 163.39469 127.3125 161.4375 z M 167.84375 163.96875 C 165.99929 169.52425 164.22511 175.34438 162.5625 181.5 C 161.79932 182.06616 161.03173 182.6532 160.28125 183.25 C 160.37985 178.76058 160.56843 174.34172 160.84375 170.03125 C 163.11065 167.95987 165.44162 165.94876 167.84375 163.96875 z M 131.3125 165.4375 C 131.72325 167.59011 132.13955 169.76065 132.53125 171.96875 C 132.23689 172.82915 131.94321 173.69149 131.65625 174.5625 C 131.19971 173.50989 130.74452 172.46264 130.28125 171.4375 C 130.58429 169.38798 130.93785 167.39469 131.3125 165.4375 z M 67.78125 173.15625 C 73.939547 177.04671 79.06506 181.37677 83.34375 186 C 83.386792 186.03991 83.425853 186.08503 83.46875 186.125 C 89.599248 191.83662 94.250721 198.0998 97.875 204.59375 C 96.975176 210.28665 96.118003 216.2542 95.28125 222.4375 C 94.093649 219.88621 92.921709 217.45804 91.75 215.125 C 91.596099 216.23659 91.433661 217.31124 91.28125 218.4375 C 85.778172 206.6154 80.456102 197.23122 75.21875 189.40625 C 72.829812 183.72549 70.335073 178.31552 67.78125 173.15625 z M 144.875 178.1875 C 144.31686 182.57547 143.83024 187.12353 143.375 191.8125 C 143.07852 192.1596 142.76213 192.49088 142.46875 192.84375 C 141.75323 189.61309 141.06051 186.52479 140.375 183.53125 C 141.82483 181.71886 143.3309 179.9362 144.875 178.1875 z M 148.875 182.1875 C 148.31686 186.57547 147.83024 191.12353 147.375 195.8125 C 147.07852 196.1596 146.76213 196.49088 146.46875 196.84375 C 145.75323 193.61309 145.06051 190.52479 144.375 187.53125 C 145.82483 185.71886 147.3309 183.9362 148.875 182.1875 z M 184.53125 187.09375 C 178.80831 191.05574 173.33683 196.11214 167.90625 202.375 C 168.82917 198.87138 169.87856 195.2804 171.0625 191.59375 C 175.07097 189.63102 179.54747 188.09802 184.53125 187.09375 z M 188.53125 191.09375 C 182.80831 195.05574 177.33683 200.11214 171.90625 206.375 C 172.82917 202.87138 173.87856 199.2804 175.0625 195.59375 C 179.07097 193.63102 183.54747 192.09802 188.53125 191.09375 z "
       id="path3914"
       transform="translate(0,796.36218)" />
  </g>
</svg>
